<svg width="392" height="392" viewBox="0 0 392 392" fill="none" xmlns="http://www.w3.org/2000/svg">
<path fill-rule="evenodd" clip-rule="evenodd" d="M196 392C304.248 392 392 304.248 392 196C392 87.7522 304.248 0 196 0C87.7522 0 0 87.7522 0 196C0 304.248 87.7522 392 196 392ZM196 348C279.947 348 348 279.947 348 196C348 112.053 279.947 44 196 44C112.053 44 44 112.053 44 196C44 279.947 112.053 348 196 348Z" fill="#EF8555"/>
<path d="M111.725 264.219L152.281 223.663C142.31 210.895 136.343 194.805 136.343 177.329C136.343 135.742 170.085 102 211.671 102C253.294 102 287 135.743 287 177.329C287 218.914 253.294 252.657 211.671 252.657C194.197 252.657 178.139 246.723 165.372 236.754L124.807 277.284C121.187 280.904 115.343 280.905 111.72 277.288C108.093 273.7 108.093 267.812 111.72 264.225C111.722 264.223 111.724 264.221 111.725 264.219ZM211.671 234.062C242.988 234.062 268.441 208.609 268.441 177.329C268.441 146.047 242.987 120.559 211.671 120.559C180.391 120.559 154.902 146.048 154.902 177.329C154.902 208.608 180.389 234.062 211.671 234.062Z" fill="white" stroke="white" stroke-width="4"/>
</svg>
