<svg width="392" height="392" viewBox="0 0 392 392" fill="none" xmlns="http://www.w3.org/2000/svg">
<path fill-rule="evenodd" clip-rule="evenodd" d="M392 196C392 304.248 304.248 392 196 392C87.7522 392 0 304.248 0 196C0 87.7522 87.7522 0 196 0C304.248 0 392 87.7522 392 196ZM150.669 196L237.667 109.002C244.111 102.558 244.111 92.1109 237.667 85.6673C231.224 79.2236 220.776 79.2236 214.333 85.6673L115.667 184.333C109.224 190.776 109.224 201.224 115.667 207.667C115.693 207.693 115.719 207.718 115.744 207.744L214.333 306.332C220.776 312.776 231.224 312.776 237.667 306.332C244.111 299.889 244.111 289.441 237.667 282.998L150.669 196Z" fill="#6FE6F6"/>
</svg>
