<svg width="184" height="90" viewBox="0 0 184 90" fill="none" xmlns="http://www.w3.org/2000/svg">
<path d="M45.0992 49.04C45.8992 50.56 46.6592 52.14 47.3792 53.78C48.1392 55.42 48.8592 57.1 49.5392 58.82C50.2192 57.06 50.9392 55.36 51.6992 53.72C52.4592 52.04 53.2392 50.42 54.0392 48.86L76.4792 4.69999C76.8792 3.94 77.2792 3.36 77.6792 2.96C78.1192 2.52 78.5992 2.2 79.1192 2C79.6392 1.8 80.2192 1.68 80.8592 1.63999C81.5392 1.6 82.3192 1.58 83.1992 1.58H98.6792V89H80.7992V38.72C80.7992 36.28 80.9192 33.64 81.1592 30.8L57.9992 75.74C57.2792 77.14 56.2992 78.2 55.0592 78.92C53.8592 79.64 52.4792 80 50.9192 80H48.1592C46.5992 80 45.1992 79.64 43.9592 78.92C42.7592 78.2 41.7992 77.14 41.0792 75.74L17.7992 30.74C17.9592 32.14 18.0792 33.54 18.1592 34.94C18.2392 36.3 18.2792 37.56 18.2792 38.72V89H0.399219V1.58H15.8792C16.7592 1.58 17.5192 1.6 18.1592 1.63999C18.8392 1.68 19.4392 1.8 19.9592 2C20.4792 2.2 20.9392 2.52 21.3392 2.96C21.7792 3.36 22.1992 3.94 22.5992 4.69999L45.0992 49.04ZM171.874 66.38C172.354 66.38 172.834 66.48 173.314 66.68C173.794 66.84 174.254 67.14 174.694 67.58L182.734 76.04C179.214 80.64 174.794 84.12 169.474 86.48C164.194 88.8 157.934 89.96 150.694 89.96C144.054 89.96 138.094 88.84 132.814 86.6C127.574 84.32 123.114 81.2 119.434 77.24C115.794 73.24 112.994 68.52 111.034 63.08C109.074 57.6 108.094 51.66 108.094 45.26C108.094 38.74 109.214 32.76 111.454 27.32C113.694 21.84 116.814 17.12 120.814 13.16C124.854 9.2 129.674 6.12 135.274 3.91999C140.874 1.72 147.054 0.619997 153.814 0.619997C157.094 0.619997 160.174 0.919997 163.054 1.52C165.974 2.07999 168.694 2.87999 171.214 3.91999C173.734 4.92 176.054 6.14 178.174 7.57999C180.294 8.98 182.174 10.54 183.814 12.26L176.974 21.44C176.534 22 176.014 22.52 175.414 23C174.814 23.44 173.974 23.66 172.894 23.66C172.174 23.66 171.494 23.5 170.854 23.18C170.214 22.86 169.534 22.48 168.814 22.04C168.094 21.56 167.294 21.06 166.414 20.54C165.574 19.98 164.554 19.48 163.354 19.04C162.194 18.56 160.814 18.16 159.214 17.84C157.654 17.52 155.814 17.36 153.694 17.36C150.014 17.36 146.654 18.02 143.614 19.34C140.574 20.62 137.954 22.48 135.754 24.92C133.594 27.32 131.894 30.24 130.654 33.68C129.454 37.12 128.854 40.98 128.854 45.26C128.854 49.74 129.454 53.72 130.654 57.2C131.894 60.68 133.554 63.62 135.634 66.02C137.754 68.38 140.214 70.18 143.014 71.42C145.814 72.66 148.814 73.28 152.014 73.28C153.854 73.28 155.534 73.2 157.054 73.04C158.574 72.84 159.974 72.52 161.254 72.08C162.574 71.64 163.814 71.08 164.974 70.4C166.174 69.68 167.374 68.8 168.574 67.76C169.054 67.36 169.574 67.04 170.134 66.8C170.694 66.52 171.274 66.38 171.874 66.38Z" fill="white"/>
</svg>
